HIERARCHY
ROOT joint_Root
{
	OFFSET 0.0 0.0 0.0
	CHANNELS 6 Xposition Yposition Zposition Zrotation Xrotation Yrotation 
	JOINT Hips
	{
		OFFSET -0.726466 93.3139 -2.00062
		CHANNELS 6 Xposition Yposition Zposition Zrotation Xrotation Yrotation 
		JOINT Spine
		{
			OFFSET 15.7357 0.0 0.0
			CHANNELS 6 Xposition Yposition Zposition Zrotation Xrotation Yrotation 
			JOINT Chest
			{
				OFFSET 8.98455 -0.406207 0.0
				CHANNELS 6 Xposition Yposition Zposition Zrotation Xrotation Yrotation 
				JOINT Neck
				{
					OFFSET 16.3773 0.0 0.0
					CHANNELS 6 Xposition Yposition Zposition Zrotation Xrotation Yrotation 
					JOINT Head
					{
						OFFSET 6.45672 0.0 0.0
						CHANNELS 6 Xposition Yposition Zposition Zrotation Xrotation Yrotation 
						End Site
						{
							OFFSET 0.0 0.0 0.0
						}
					}
				}
				JOINT Shoulder_L
				{
					OFFSET 12.9942 -0.242716 4.98039
					CHANNELS 6 Xposition Yposition Zposition Zrotation Xrotation Yrotation 
					JOINT UpperArm_L
					{
						OFFSET 5.34809 0.0 0.0
						CHANNELS 6 Xposition Yposition Zposition Zrotation Xrotation Yrotation 
						JOINT LowerArm_L
						{
							OFFSET 24.3286 1.87007e-05 0.0
							CHANNELS 6 Xposition Yposition Zposition Zrotation Xrotation Yrotation 
							JOINT Hand_L
							{
								OFFSET 22.2916 0.0 0.0
								CHANNELS 6 Xposition Yposition Zposition Zrotation Xrotation Yrotation 
								End Site
								{
									OFFSET 0.0 0.0 0.0
								}
							}
						}
					}
				}
				JOINT Shoulder_R
				{
					OFFSET 12.9945 -0.242716 -4.98039
					CHANNELS 6 Xposition Yposition Zposition Zrotation Xrotation Yrotation 
					JOINT UpperArm_R
					{
						OFFSET -5.34813 0.0 0.0
						CHANNELS 6 Xposition Yposition Zposition Zrotation Xrotation Yrotation 
						JOINT LowerArm_R
						{
							OFFSET -24.3289 0.000322201 0.0
							CHANNELS 6 Xposition Yposition Zposition Zrotation Xrotation Yrotation 
							JOINT Hand_R
							{
								OFFSET -22.2915 -0.000108084 0.0
								CHANNELS 6 Xposition Yposition Zposition Zrotation Xrotation Yrotation 
								End Site
								{
									OFFSET 0.0 0.0 0.0
								}
							}
						}
					}
				}
			}
		}
		JOINT UpperLeg_L
		{
			OFFSET -2.19248 -6.46944 0.0
			CHANNELS 6 Xposition Yposition Zposition Zrotation Xrotation Yrotation 
			JOINT LowerLeg_L
			{
				OFFSET 39.0811 0.0 -1.23785e-05
				CHANNELS 6 Xposition Yposition Zposition Zrotation Xrotation Yrotation 
				JOINT Foot_L
				{
					OFFSET 40.9854 0.0 -1.26872e-05
					CHANNELS 6 Xposition Yposition Zposition Zrotation Xrotation Yrotation 
					JOINT Toes_L
					{
						OFFSET 11.7543 0.0 0.0
						CHANNELS 6 Xposition Yposition Zposition Zrotation Xrotation Yrotation 
						End Site
						{
							OFFSET 0.0 0.0 0.0
						}
					}
				}
			}
		}
		JOINT UpperLeg_R
		{
			OFFSET -2.19251 6.46944 0.0
			CHANNELS 6 Xposition Yposition Zposition Zrotation Xrotation Yrotation 
			JOINT LowerLeg_R
			{
				OFFSET -39.0811 -0.00228153 -0.0401928
				CHANNELS 6 Xposition Yposition Zposition Zrotation Xrotation Yrotation 
				JOINT Foot_R
				{
					OFFSET -40.9854 0.0 0.0
					CHANNELS 6 Xposition Yposition Zposition Zrotation Xrotation Yrotation 
					JOINT Toes_R
					{
						OFFSET -11.7543 0.0 0.0
						CHANNELS 6 Xposition Yposition Zposition Zrotation Xrotation Yrotation 
						End Site
						{
							OFFSET 0.0 0.0 0.0
						}
					}
				}
			}
		}
	}
}
MOTION
Frames:	9
Frame Time:	0.0333333
0.000000 0.000000 0.000000 0.000000 0.000000 -0.000000 -1.020540 92.257100 -0.398285 88.272300 -0.115603 4.119660 15.735700 0.000005 -0.000001 81.138500 85.741700 -79.993500 8.984550 -0.406207 -0.000000 0.664084 -1.382450 2.296320 16.377300 -0.000001 -0.000001 4.859540 -2.064360 -2.303260 6.456720 -0.000001 -0.000000 3.964560 -1.434990 1.115860 12.994200 -0.242716 4.980390 -88.220700 -5.067480 -70.623700 5.348090 -0.000007 -0.000001 -38.040700 -28.021200 -59.622700 24.328600 0.000019 0.000005 27.232000 -7.622170 -104.452000 22.291600 -0.000001 0.000005 24.785900 5.567160 -9.531770 12.994500 -0.242716 -4.980390 87.856500 6.080350 -70.539100 -5.348130 -0.000001 -0.000004 -67.259500 33.538100 -10.944900 -24.328900 0.000322 -0.000009 1.702150 6.555100 -14.599500 -22.291500 -0.000108 -0.000004 9.740590 5.342570 -1.155540 -2.192480 -6.469440 -0.000000 -175.431000 -6.575370 -2.446700 39.081100 -0.000007 -0.000012 -0.112862 0.267834 22.850100 40.985400 -0.000006 -0.000013 -0.327630 4.013970 -66.487300 11.754300 -0.000000 0.000003 -0.000031 -0.000377 -16.592300 -2.192510 6.469440 -0.000001 179.326000 13.936700 179.935000 -39.081100 -0.002282 -0.040193 -0.073020 0.213077 19.711700 -40.985400 0.000008 0.000006 2.291140 7.738120 -65.835700 -11.754300 -0.000006 -0.000006 -0.007051 -0.080097 -19.833800
0.000000 0.000000 0.000000 0.000000 0.000000 -0.000000 -0.962178 92.259300 -0.376234 88.290400 -0.108825 4.127640 15.735700 0.000005 -0.000001 80.781600 85.732000 -79.604900 8.984550 -0.406207 -0.000000 0.675878 -1.439760 2.360380 16.377300 -0.000001 -0.000001 4.797560 -1.988640 -2.482300 6.456720 -0.000001 -0.000000 3.867640 -1.249000 1.026890 12.994200 -0.242716 4.980390 -88.236300 -5.029890 -70.648600 5.348090 -0.000007 -0.000001 -34.357500 -27.100400 -58.471400 24.328600 0.000019 0.000005 25.575900 -7.787990 -105.809000 22.291600 -0.000001 0.000005 26.547500 5.609360 -11.899700 12.994500 -0.242716 -4.980390 87.874200 6.033520 -70.549400 -5.348130 -0.000001 -0.000004 -67.022900 33.307300 -11.176600 -24.328900 0.000322 -0.000009 1.697890 6.572360 -14.528000 -22.291500 -0.000108 -0.000004 9.901380 5.341660 -1.128520 -2.192480 -6.469440 -0.000000 -175.501000 -6.517090 -2.410320 39.081100 -0.000007 -0.000012 -0.112160 0.266552 22.820400 40.985400 -0.000006 -0.000013 -0.293532 3.959840 -66.493000 11.754300 -0.000000 0.000003 -0.000044 -0.000505 -16.597200 -2.192510 6.469440 -0.000001 179.252000 13.933200 179.986000 -39.081100 -0.002282 -0.040193 -0.073283 0.214312 19.669300 -40.985400 0.000008 0.000006 2.173980 7.742360 -65.813600 -11.754300 -0.000006 -0.000006 -0.006824 -0.078148 -19.754300
0.000000 0.000000 0.000000 0.000000 0.000000 -0.000000 -0.888419 92.258100 -0.381020 88.294200 -0.338542 4.077030 15.735700 0.000005 -0.000001 80.451600 85.728700 -79.215300 8.984550 -0.406207 -0.000000 0.675862 -1.493030 2.479640 16.377300 -0.000001 -0.000001 4.705520 -1.972700 -2.567920 6.456720 -0.000001 -0.000000 3.799640 -1.108630 0.915246 12.994200 -0.242716 4.980390 -88.235800 -5.054520 -70.730500 5.348090 -0.000007 -0.000001 -35.120400 -27.848800 -58.153700 24.328600 0.000019 0.000005 24.852300 -7.474930 -105.689000 22.291600 -0.000001 0.000005 26.742400 5.614710 -12.260700 12.994500 -0.242716 -4.980390 87.907400 5.939500 -70.551600 -5.348130 -0.000001 -0.000004 -66.673600 33.314700 -11.630600 -24.328900 0.000322 -0.000009 1.652150 6.266530 -14.810900 -22.291500 -0.000108 -0.000004 9.863940 5.344840 -1.222990 -2.192480 -6.469440 -0.000000 -175.558000 -6.680680 -2.434250 39.081100 -0.000007 -0.000012 -0.109414 0.259908 22.829800 40.985400 -0.000006 -0.000013 -0.252009 3.886640 -66.519300 11.754300 -0.000000 0.000003 -0.000036 -0.000422 -16.594000 -2.192510 6.469440 -0.000001 179.203000 13.792100 179.903000 -39.081100 -0.002282 -0.040193 -0.075756 0.221005 19.687900 -40.985400 0.000008 0.000006 2.069450 7.867270 -65.780400 -11.754300 -0.000006 -0.000006 -0.007062 -0.080193 -19.837800
0.000000 0.000000 0.000000 0.000000 0.000000 -0.000000 -0.840695 92.280800 -0.418252 88.265200 -0.756109 3.925470 15.735700 0.000005 -0.000001 80.179300 85.759400 -78.865100 8.984550 -0.406207 -0.000000 0.610048 -1.528140 2.634850 16.377300 -0.000001 -0.000001 4.680410 -2.006820 -2.511790 6.456720 -0.000001 -0.000000 3.693490 -1.078120 0.820251 12.994200 -0.242716 4.980390 -88.201400 -5.152910 -70.728900 5.348090 -0.000007 -0.000001 -39.688700 -30.052800 -58.789400 24.328600 0.000019 0.000005 24.595900 -6.443100 -103.773000 22.291600 -0.000001 0.000005 26.144900 5.595390 -11.065900 12.994500 -0.242716 -4.980390 87.896600 5.958210 -70.515300 -5.348130 -0.000001 -0.000004 -66.160600 33.411900 -12.132400 -24.328900 0.000322 -0.000009 1.644330 5.950790 -15.487300 -22.291500 -0.000108 -0.000004 9.932450 5.347590 -1.304950 -2.192480 -6.469440 -0.000000 -175.572000 -6.922550 -2.479640 39.081100 -0.000007 -0.000012 -0.110128 0.263377 22.691800 40.985400 -0.000006 -0.000013 -0.264065 3.698940 -66.463400 11.754300 -0.000000 0.000003 -0.000047 -0.000536 -16.598400 -2.192510 6.469440 -0.000001 179.278000 13.500500 179.733000 -39.081100 -0.002282 -0.040193 -0.071613 0.210688 19.579000 -40.985400 0.000008 0.000006 2.179560 7.965960 -65.678800 -11.754300 -0.000006 -0.000006 -0.007060 -0.080176 -19.837100
0.000000 0.000000 0.000000 0.000000 0.000000 -0.000000 -0.801333 92.278600 -0.432826 88.213800 -1.323500 3.815410 15.735700 0.000005 -0.000001 80.105600 85.773500 -78.693300 8.984550 -0.406207 -0.000000 0.582236 -1.540550 2.830480 16.377300 -0.000001 -0.000001 4.684060 -2.065960 -2.394380 6.456720 -0.000001 -0.000000 3.656060 -1.161440 0.758046 12.994200 -0.242716 4.980390 -88.169600 -5.236590 -70.702000 5.348090 -0.000007 -0.000001 -46.635700 -33.120100 -60.416000 24.328600 0.000019 0.000005 22.305900 -4.360570 -100.494000 22.291600 -0.000001 0.000005 25.173200 5.566940 -9.527610 12.994500 -0.242716 -4.980390 87.877000 6.004050 -70.485300 -5.348130 -0.000001 -0.000004 -65.575400 33.564500 -12.661200 -24.328900 0.000322 -0.000009 1.661870 5.643960 -16.447000 -22.291500 -0.000108 -0.000004 10.020800 5.348390 -1.328960 -2.192480 -6.469440 -0.000000 -175.552000 -7.250060 -2.545270 39.081100 -0.000007 -0.000012 -0.109745 0.261912 22.734400 40.985400 -0.000006 -0.000013 -0.283801 3.461830 -66.515500 11.754300 -0.000000 0.000003 -0.000033 -0.000398 -16.593100 -2.192510 6.469440 -0.000001 179.318000 13.218600 179.557000 -39.081100 -0.002282 -0.040193 -0.076494 0.224499 19.572000 -40.985400 0.000008 0.000006 2.001250 8.251580 -65.574800 -11.754300 -0.000006 -0.000006 -0.007011 -0.079760 -19.820100
0.000000 0.000000 0.000000 0.000000 0.000000 -0.000000 -0.780283 92.300200 -0.453491 88.180800 -1.924300 3.699580 15.735700 0.000005 -0.000001 80.258700 85.782300 -78.755500 8.984550 -0.406207 -0.000000 0.569894 -1.521180 3.011870 16.377300 -0.000001 -0.000001 4.647790 -2.149670 -2.209600 6.456720 -0.000001 -0.000000 3.642460 -1.282990 0.761483 12.994200 -0.242716 4.980390 -88.129500 -5.348790 -70.692600 5.348090 -0.000007 -0.000001 -55.010300 -36.494400 -63.200300 24.328600 0.000019 0.000005 20.143400 -2.213340 -96.006000 22.291600 -0.000001 0.000005 24.264500 5.534120 -7.975750 12.994500 -0.242716 -4.980390 87.815600 6.136620 -70.362900 -5.348130 -0.000001 -0.000004 -65.040400 33.529400 -13.107600 -24.328900 0.000322 -0.000009 1.667020 5.293200 -17.520700 -22.291500 -0.000108 -0.000004 10.045800 5.349690 -1.367730 -2.192480 -6.469440 -0.000000 -175.529000 -7.629260 -2.499530 39.081100 -0.000007 -0.000012 -0.110457 0.265701 22.573700 40.985400 -0.000006 -0.000013 -0.320363 3.253330 -66.476400 11.754300 -0.000000 0.000003 -0.000040 -0.000469 -16.595800 -2.192510 6.469440 -0.000001 179.380000 12.852000 179.451000 -39.081100 -0.002282 -0.040193 -0.073632 0.218125 19.432800 -40.985400 0.000008 0.000006 2.055670 8.511180 -65.458600 -11.754300 -0.000006 -0.000006 -0.006889 -0.078707 -19.777100
0.000000 0.000000 0.000000 0.000000 0.000000 -0.000000 -0.774903 92.294900 -0.467898 88.091900 -2.464770 3.586810 15.735700 0.000005 -0.000001 80.186900 85.782600 -78.584900 8.984550 -0.406207 -0.000000 0.569268 -1.537690 3.209320 16.377300 -0.000001 -0.000001 4.706830 -2.291220 -1.977940 6.456720 -0.000001 -0.000000 3.542260 -1.446300 0.813651 12.994200 -0.242716 4.980390 -88.082700 -5.462350 -70.625200 5.348090 -0.000007 -0.000001 -63.890700 -39.528200 -67.088500 24.328600 0.000019 0.000005 18.394800 -0.211186 -90.632500 22.291600 -0.000001 0.000005 24.656700 5.509510 -6.923130 12.994500 -0.242716 -4.980390 87.765300 6.239080 -70.248500 -5.348130 -0.000001 -0.000004 -64.572900 33.646000 -13.553700 -24.328900 0.000322 -0.000009 1.643400 4.934050 -18.459000 -22.291500 -0.000108 -0.000004 9.996390 5.351250 -1.414930 -2.192480 -6.469440 -0.000000 -175.479000 -7.767290 -2.596070 39.081100 -0.000007 -0.000012 -0.109950 0.263313 22.663700 40.985400 -0.000006 -0.000013 -0.400820 2.833870 -66.548600 11.754300 -0.000000 0.000003 -0.000040 -0.000462 -16.595600 -2.192510 6.469440 -0.000001 179.487000 12.530400 179.280000 -39.081100 -0.002282 -0.040193 -0.076694 0.226907 19.424700 -40.985400 0.000008 0.000006 1.950490 8.721480 -65.373500 -11.754300 -0.000006 -0.000006 -0.007020 -0.079838 -19.823300
0.000000 0.000000 0.000000 0.000000 0.000000 -0.000000 -0.776065 92.308400 -0.463928 88.080100 -2.922130 3.543470 15.735700 0.000005 -0.000001 80.279500 85.775800 -78.608100 8.984550 -0.406207 -0.000000 0.585838 -1.530630 3.348410 16.377300 -0.000001 -0.000001 4.722870 -2.419360 -1.784990 6.456720 -0.000001 -0.000000 3.610370 -1.599630 0.899426 12.994200 -0.242716 4.980390 -88.029700 -5.589790 -70.547800 5.348090 -0.000007 -0.000001 -73.032800 -41.744700 -71.943300 24.328600 0.000019 0.000005 16.865200 1.599150 -84.735600 22.291600 -0.000001 0.000005 25.494800 5.496970 -6.418750 12.994500 -0.242716 -4.980390 87.748700 6.271240 -70.207000 -5.348130 -0.000001 -0.000004 -64.330200 33.758600 -13.807000 -24.328900 0.000322 -0.000009 1.612070 4.653640 -19.142900 -22.291500 -0.000108 -0.000004 9.974530 5.353090 -1.470190 -2.192480 -6.469440 -0.000000 -175.461000 -8.010410 -2.488050 39.081100 -0.000007 -0.000012 -0.109420 0.263808 22.527300 40.985400 -0.000006 -0.000013 -0.442605 2.670010 -66.533000 11.754300 -0.000000 0.000003 -0.000045 -0.000520 -16.597800 -2.192510 6.469440 -0.000001 179.543000 12.191900 179.231000 -39.081100 -0.002282 -0.040193 -0.073703 0.219179 19.362900 -40.985400 0.000008 0.000006 2.058450 8.837310 -65.327800 -11.754300 -0.000006 -0.000006 -0.006888 -0.078696 -19.776700
0.000000 0.000000 0.000000 0.000000 0.000000 -0.000000 -0.792433 92.311400 -0.474647 88.035000 -3.152540 3.472160 15.735700 0.000005 -0.000001 80.133700 85.792700 -78.401300 8.984550 -0.406207 -0.000000 0.550252 -1.550410 3.470040 16.377300 -0.000001 -0.000001 4.893560 -2.547870 -1.546410 6.456720 -0.000001 -0.000000 3.620080 -1.802040 0.934141 12.994200 -0.242716 4.980390 -87.955200 -5.775840 -70.466000 5.348090 -0.000007 -0.000001 -81.489900 -42.937600 -76.829100 24.328600 0.000019 0.000005 15.624000 2.928010 -79.646500 22.291600 -0.000001 0.000005 26.309100 5.457550 -4.916270 12.994500 -0.242716 -4.980390 87.725000 6.309310 -70.125400 -5.348130 -0.000001 -0.000004 -64.152700 34.004900 -13.915300 -24.328900 0.000322 -0.000009 1.572450 4.437190 -19.547900 -22.291500 -0.000108 -0.000004 9.951090 5.353400 -1.479640 -2.192480 -6.469440 -0.000000 -175.396000 -8.261300 -2.541370 39.081100 -0.000007 -0.000012 -0.110577 0.266458 22.538000 40.985400 -0.000006 -0.000013 -0.459713 2.648520 -66.538400 11.754300 -0.000000 0.000003 -0.000046 -0.000525 -16.598000 -2.192510 6.469440 -0.000001 179.638000 12.034900 179.136000 -39.081100 -0.002282 -0.040193 -0.071589 0.213344 19.347700 -40.985400 0.000008 0.000006 2.138670 8.870000 -65.302900 -11.754300 -0.000006 -0.000006 -0.007147 -0.080917 -19.867300
